<?xml version="1.0" encoding="UTF-8"?>
<svg id="Layer_2" data-name="Layer 2" xmlns="http://www.w3.org/2000/svg" xmlns:xlink="http://www.w3.org/1999/xlink" viewBox="0 0 438.2 438.2">
  <defs>
    <style>
      .cls-1 {
        fill: none;
      }

      .cls-2 {
        fill: url(#radial-gradient-2);
      }

      .cls-3 {
        fill: url(#linear-gradient-3);
      }

      .cls-4 {
        fill: url(#linear-gradient-2);
      }

      .cls-5 {
        fill: url(#radial-gradient);
      }

      .cls-6 {
        fill: url(#linear-gradient);
      }

      .cls-7 {
        clip-path: url(#clippath);
      }
    </style>
    <clipPath id="clippath">
      <path class="cls-1" d="M.01,219.06c-1.09,100.47,70.46,161.3,82.29,171,55.28,45.33,115.36,47.56,136.76,48.03,22.87.5,77.12.92,128.95-35.81,56.57-40.1,92.22-111.67,90.1-183.21C434.58,100.07,327.18,1.91,219.06.03,134.55-1.45,75.89,56.86,66.22,66.76,51.71,81.64.92,135.29.01,219.06Z"/>
    </clipPath>
    <radialGradient id="radial-gradient" cx="839.53" cy="705.13" fx="757.74" fy="539.08" r="247.69" gradientTransform="translate(949.63 -420.26) rotate(-180) scale(.87 -.91)" gradientUnits="userSpaceOnUse">
      <stop offset="0" stop-color="#e8e8e6"/>
      <stop offset="0" stop-color="#eff0f1"/>
      <stop offset=".18" stop-color="#e9e9e8"/>
      <stop offset=".43" stop-color="#e6e5e4"/>
      <stop offset=".72" stop-color="#d6d7d7"/>
      <stop offset="1" stop-color="#cccecf"/>
    </radialGradient>
    <linearGradient id="linear-gradient" x1="1073.14" y1="57.34" x2="1267.77" y2="19.02" gradientTransform="translate(1114.61 -449.61) rotate(148.86) scale(1 -1)" gradientUnits="userSpaceOnUse">
      <stop offset="0" stop-color="#cf0024"/>
      <stop offset="1" stop-color="#191970"/>
    </linearGradient>
    <radialGradient id="radial-gradient-2" cx="852.49" cy="790.85" fx="852.49" fy="657.28" r="152.81" gradientTransform="translate(-731.95 622.32) rotate(-63.67) scale(.9 .88) skewX(-1.87)" gradientUnits="userSpaceOnUse">
      <stop offset=".4" stop-color="#e5575e"/>
      <stop offset=".46" stop-color="#dd5661"/>
      <stop offset=".55" stop-color="#c85569"/>
      <stop offset=".67" stop-color="#a65278"/>
      <stop offset=".8" stop-color="#764f8b"/>
      <stop offset=".94" stop-color="#3a4ba4"/>
      <stop offset=".97" stop-color="#2e4baa"/>
    </radialGradient>
    <linearGradient id="linear-gradient-2" x1="1151.98" y1="284.45" x2="1468.69" y2="284.45" gradientTransform="translate(1590.72) rotate(-180) scale(1 -1)" gradientUnits="userSpaceOnUse">
      <stop offset=".56" stop-color="#9b1f2d"/>
      <stop offset=".84" stop-color="#bb1e2d"/>
      <stop offset=".86" stop-color="#b21d30"/>
      <stop offset=".89" stop-color="#991c3a"/>
      <stop offset=".93" stop-color="#721b4b"/>
      <stop offset=".97" stop-color="#3b1a61"/>
      <stop offset="1" stop-color="#191970"/>
    </linearGradient>
    <linearGradient id="linear-gradient-3" x1="912.72" y1="180.07" x2="1247.05" y2="-60.98" gradientTransform="translate(-341.76 1149.84) rotate(-62.72)" gradientUnits="userSpaceOnUse">
      <stop offset=".11" stop-color="#1a365d"/>
      <stop offset=".21" stop-color="#1c3867"/>
      <stop offset=".38" stop-color="#244085"/>
      <stop offset=".55" stop-color="#2e4baa"/>
      <stop offset=".61" stop-color="#344ea4"/>
      <stop offset=".68" stop-color="#485895"/>
      <stop offset=".77" stop-color="#67697b"/>
      <stop offset=".87" stop-color="#938058"/>
      <stop offset=".97" stop-color="#ca9d2c"/>
      <stop offset="1" stop-color="#daa520"/>
    </linearGradient>
  </defs>
  <g id="Layer_1-2" data-name="Layer 1">
    <g class="cls-7">
      <g>
        <path class="cls-5" d="M-.88,219.06c-1.09,100.81,70.75,161.84,82.63,171.58,55.5,45.49,115.83,47.72,137.31,48.19,22.96.5,77.43.93,129.47-35.93,56.8-40.23,92.6-112.05,90.47-183.83C435.46,99.67,327.62,1.18,219.06-.71c-84.86-1.48-143.76,57.02-153.46,66.96C51.03,81.17.03,135-.88,219.06Z"/>
        <path class="cls-6" d="M93.53,334.94c-2.63-14.75-5.26-29.5-7.89-44.25-1.83-5.99-4.08-14.72-5.41-25.53-.45-3.68-.86-6.98-.93-11.33-.11-6.59-.19-18.99,6.17-32.55,4.64-9.89,11.1-16.4,15.4-19.4,3.37-2.35,7.01-3.85,7.01-3.85,3.31-1.36,5.87-1.84,7.62-2.16,3.12-.56,4.61-.45,5.84-.16,1.28.3,2.29.78,2.95,1.15,4.59-.09,9.94-.42,15.89-1.21,2.61-.35,9.03-1.23,17.35-3.41,8.32-2.18,15.61-4.9,21.79-7.64,2.81-1.35,6.92-3.67,11.12-7.53,4.97-4.56,10.54-9.6,10.98-16.98.4-6.58-3.34-12.16-6.03-16.16-2.97-4.43-4.42-4.62-11.06-13.01-4.77-6.03-5.47-7.76-5.85-8.89-2.01-6.02-.47-11.65.4-14.65.81-2.82,1.61-4.21,8.14-14.95,6.06-9.99,6.86-11.25,7.48-14.05.39-1.76,2.28-10.27-2-15.12-.13-.15-.26-.28-.42-.42-3.5-3.08-6.9-3.31-10.35-4.52-1.98-.69-6.87-2.4-7.85-5.47-1.8-5.63,10.39-13.04,9.34-14.62-1-1.5-12.43,4.37-19.61,8.92,0,0-7.17,4.54-12.87,10.74-.44.48-.84.96-.84.96-1.47,1.78-6.83,8.46-7.72,18.14-.18,1.99.03,4.35.08,5.23.18,3.29.49,4.27.56,6.32.09,2.85-.38,4.92-.94,7.42-.46,2.04-2.16,8.89-7.43,16.4-.87,1.24-1.57,2.12-2.08,2.75-4.3,5.36-8.4,8.64-10.22,10.07-9.32,7.31-17.97,12.7-24.27,17.87-8.63,7.08-13.5,14.3-17.9,20.81-3.19,4.73-12.47,19.21-17.62,40.68-4.62,19.24-3.57,34.54-2.78,45.14.73,9.75,2.22,27.55,11.08,48.51,7.03,16.63,15.98,28.8,22.88,36.77Z"/>
        <path class="cls-2" d="M365.77,357.1c-6.16,3.58-9.39,5.26-12.25,6.66-3.36,1.64-7.25,3.39-11.61,5.1-11.07,4.33-20.36,6.49-26.6,7.92-2.5.57-7.3,1.66-13.32,2.62-6.75,1.08-19.18,2.99-34.77,2.05-10.1-.61-23.34-1.52-38.9-8.16-9.54-4.07-16.76-8.94-21.5-12.55-3.32-2.14-8.06-5.27-13.69-9.2-9.54-6.67-14.29-10.04-17.64-13.47-7.02-7.17-10.7-14.16-12.87-18.36-3.43-6.64-4.38-10.7-4.78-12.89-.28-1.48-.82-4.93-.62-9.39.42-9.81,3.96-11.62,3.52-19.45-.28-5.02-1.98-8.83-2.86-10.76-2.42-5.29-5.62-8.53-6.95-9.86-1.11-1.1-2.25-2.04-2.99-2.65-2.66-2.21-4.71-3.55-6.24-4.57-2.21-1.48-6.32-4.25-9.58-6.97-.88-.73-5.37-4.49-7.48-7.68-5.91-8.88.02-23.27,1.45-26.54.58-2.91,1.33-8.8-1.8-12.09-5.17-5.44-17.4.04-23.35,3.61-14.43,8.66-18.93,26.28-20.46,31.91-.99,3.62-1.51,7.04-1.51,7.04-.93,6.08-.75,11.02-.51,17.52.05,1.48.14,2.96.28,4.6.17,1.92.38,3.55.57,4.82.39,3.26,1.11,8.27,2.48,14.31,1.9,8.4,2.91,9.17,4.64,17.58.95,4.63,2.21,12.7,2.59,16.88.33,3.62.3,5.54.68,7.89,0,0,0,0,0,0,.64,3.53.72,6.24.75,6.64.36,6.52,16.77,21.94,18.67,23.71h0c5.8,5.17,13.45,11.5,22.9,18.05,16.03,11.13,29.29,17.4,32.39,18.85,5,2.33,20.9,9.49,42.78,14.34,31.13,6.9,58.48,5.58,76.75,3.17,25.53-3.36,58.18-7.61,89.65-32.06,36.69-28.51,50.44-67.88,55.37-85.51-3.16,9.17-9.49,23.6-22.36,37.42-7.71,8.29-15.6,14.04-21.98,17.93-7.52,4.85-13.95,8.71-18.85,11.56Z"/>
        <path class="cls-4" d="M386.71,339.08c-27.25,19.49-54.67,22.1-74.94,24.57-19.58,2.38-31.6.68-39.23-.95-17.3-3.7-29.26-10.88-36.72-15.43-8.49-5.17-19.67-12.12-30.38-25.41-2.25-2.79-12.59-15.92-19.11-36.87-2.51-8.05-4.22-16.52-5.7-45.32-.73-14.05-1.39-32.79-1.31-55.09-7.53,3.34-17.07,6.8-28.37,9.2-10.07,2.14-19.12,2.92-26.66,3.07.73,1.72,1.59,4.32,1.72,7.51.21,5.29-1.78,7.11-3.1,14.14-1.37,7.26-.88,10.84-.21,13.02.26.84.81,2.63,2.16,4.55.31.44.88,1.19,3.25,3.44,2.27,2.16,3.72,3.38,3.72,3.38,6.64,5.58,11.27,8.79,11.27,8.79,9.5,7.28,10.51,8.49,11.27,9.5,0,0,4.74,6.13,5.92,14.63,1.04,7.44-1.95,12-3.3,18.15-2.4,10.92,1.76,20.39,6.34,30.81,11.17,25.42,38.59,39.57,46.76,43.66,46.83,23.47,105.84,19.89,150.66-3.7,34.43-18.12,52.93-43.98,57.9-52.4,4.22-7.16,7.65-15.19,7.65-15.19.57-1.72,1.65-3.89,2.67-6.93.88-2.62,1.47-4.77,2.47-8.45.64-2.36,1.08-4.1,1.3-5,.04-.16.52-2.12,1.01-4.28,1.66-7.39,2.75-14.33,2.75-14.33.1-.66.87-5.53,1.43-10.83.25-2.33.43-4.46.45-4.74.05-.61.18-2.17.29-3.92.02-.35.09-1.41.09-1.41,0,0,0,.11,0,.11-2.5,37.64-16.73,63.09-16.73,63.09-12.21,21.85-28.83,34.01-35.3,38.64Z"/>
        <path class="cls-3" d="M414.68,320.46c6.13-10.59,10.34-19.91,13.08-26.55-1.58,5.43-4.07,12.96-7.94,21.63-2.86,6.42-5.42,11.06-8.1,15.92-5.1,9.23-10.57,18.03-14.21,23.3-19.63,28.44-51.78,49.65-53.64,50.86-6.73,4.37-22.01,13.73-43.37,21.38-9.74,3.49-59.26,20.41-122.98,7.65-11.98-2.4-35.38-7.27-62.58-21.77-10.38-5.53-58.13-32.1-89.63-89.93C7.26,289.82,2.4,260.85,1.16,252.55c-1.63-10.89-5.29-41.37,3.59-79.06,1.42-6.02,12.07-49.25,44.66-89.16,11.83-14.49,24.18-25.64,29.8-30.52,14.9-12.94,27.6-20.99,31.8-23.59,5.23-3.23,14.06-8.66,26.49-14.14,14.67-6.47,35.51-13.55,60.88-15.97,5.75-.55,10.52-.74,13.69-.82,1.06.41,2.51,1.1,4.03,2.26.92.7,3.71,2.98,5.33,6.84.25.59,2.87,7.13-.04,13.47-2.93,6.37-9.62,8.57-17,10.99-1.7.56-3.05.91-4.25,1.17-5.2,1.11-9.06,1.67-9.83,1.76-4.71.57-10.42,3.77-19.87,10.91-13.5,10.19-20.25,15.29-22.69,19.79-6.14,11.34.91,15.15-4.61,31.22-4.93,14.36-14.78,23.6-18.42,26.95-5.57,5.11-6.03,3.87-15.03,10.69-6.02,4.55-18.09,13.83-28.68,28.74-3.69,5.19-8.42,12.8-12.54,22.86-3.97,10.47-8.62,26.49-8.74,46.39,0,1.25-.02,5.82.47,11.81,3.44,42.19,22.26,73.55,22.26,73.55,15.52,25.86,34.82,39.81,48.38,49.62,9.36,6.77,33.98,23.36,70.15,32.92,11.75,3.1,50.16,12.24,96.23,3.42,19.11-3.66,32.63-9.09,36.95-10.89,9.06-3.77,25.32-10.69,42.37-25.04,19.93-16.77,30.33-34.75,38.13-48.25Z"/>
      </g>
    </g>
  </g>
</svg>